# xmcd CD database file
#
# Track frame offsets:
#	150
#	18603
#	34468
#	48184
#	70967
#	88449
#	108009
#	130799
#	156807
#	182227
#	204972
#	226132
#	251365
#
# Disc length: 3912 seconds
#
# Revision: 0
# Processed by: cddbd v1.5.2PL0 Copyright (c) Steve Scherf et al.
# Submitted via: CDex 1.51
#
DISCID=aa0f460d
DTITLE=Shiga Yumiko - Fourteen Stories
DYEAR=2014
DGENRE=Jazz
TTITLE0=I Thought About You
TTITLE1=Stella By Starlight
TTITLE2=Deep in Forest
TTITLE3=Waltz for Debby (with harmonica)
TTITLE4=Moonlight in Vermont (with Metallophone)
TTITLE5=Little Girl Blue
TTITLE6=The Shadows of Your Smile
TTITLE7=As Pralas Desertas
TTITLE8=Smoke Gets in Your Eyes
TTITLE9=Waltz for Debby (with Vibraphone)
TTITLE10=Eu Sei Qui Vou Te Amar
TTITLE11=Georgia on My Mind
TTITLE12=Lush Life
EXTD=YEAR: 2014
EXTT0=
EXTT1=
EXTT2=
EXTT3=
EXTT4=
EXTT5=
EXTT6=
EXTT7=
EXTT8=
EXTT9=
EXTT10=
EXTT11=
EXTT12=
PLAYORDER=
